PathFileType	4	(X/Y/Z)	Patient4_TMGait_0pt7_02_right_36.trc.trc
DataRate	CameraRate	NumFrames	NumMarkers	Units	OrigDataRate	OrigDataStartFrame	OrigNumFrames
85.889570552147	85.889570552147	4	33	mm	85.889570552147	89	       141
Frame#	Time	Sacral			L.Shoulder			Chest			R.Shoulder			Neck			R.ASIS			L.ASIS			R.Thigh.Superior			R.Thigh.Lateral			R.Thigh.Inferior			R.Patella			L.Thigh.Superior			L.Thigh.Lateral			L.Thigh.Inferior			L.Patella			L.Shank.Superior			L.Shank.Lateral			L.Shank.Inferior			R.Shank.Superior			R.Shank.Lateral			R.Shank.Inferior			R.Heel			R.Midfoot.Superior			R.Midfoot.Lateral			R.Toe			L.Heel			L.Midfoot.Lateral			L.Midfoot.Superior			L.Toe			L.Elbow			L.Wrist			R.Elbow			R.Wrist			
		X1	Y1	Z1	X2	Y2	Z2	X3	Y3	Z3	X4	Y4	Z4	X5	Y5	Z5	X6	Y6	Z6	X7	Y7	Z7	X8	Y8	Z8	X9	Y9	Z9	X10	Y10	Z10	X11	Y11	Z11	X12	Y12	Z12	X13	Y13	Z13	X14	Y14	Z14	X15	Y15	Z15	X16	Y16	Z16	X17	Y17	Z17	X18	Y18	Z18	X19	Y19	Z19	X20	Y20	Z20	X21	Y21	Z21	X22	Y22	Z22	X23	Y23	Z23	X24	Y24	Z24	X25	Y25	Z25	X26	Y26	Z26	X27	Y27	Z27	X28	Y28	Z28	X29	Y29	Z29	X30	Y30	Z30	X31	Y31	Z31	X32	Y32	Z32	X33	Y33	Z33	

89	41.654571428571	770.390984834823	1019.333464136172	443.987000225342	970.357214227344	1426.185423829552	245.642681738172	1072.298849268079	1358.147915950242	408.615718490321	996.449896026303	1450.251132509213	577.063990594925	976.253495901412	1494.766416466893	397.672027302795	986.655875892624	945.691056063065	571.450762248619	987.450593126734	954.261920446239	297.150819355910	1036.540442554309	749.756442194942	560.083789741600	959.413256057040	638.996668448631	626.147295953922	1048.074494261241	581.224145133758	559.179845682759	1040.864068514855	470.068937486304	582.075392896336	1041.209202562915	757.506968011034	327.000488377086	961.925574115965	637.875576617953	267.116743872122	1052.469797491728	566.599332443729	331.442698787243	1057.779019199356	497.110116965325	340.065760770537	1034.530288876285	423.957971782387	332.841164877095	951.356264669670	303.940991638091	281.614935931527	1009.664475705715	197.116174297029	355.933047789780	960.229162451916	405.042289118717	581.823199780570	833.660168784509	371.554593972885	634.095454110252	818.809477749596	263.035850577359	583.469101545468	615.226700179468	200.145586765960	542.079216123889	783.969547592352	151.163341218883	596.622700796280	672.434725328636	148.764676343375	622.887192761860	850.721504869118	46.362021055928	633.569906676297	888.724734396336	38.136305736872	397.025684859075	966.676624794513	35.431690909059	319.565963703689	1046.960476714963	97.313782011049	349.300587312627	1177.459440765258	47.935012891939	329.139578472567	867.505870018601	1084.469841659394	152.334815909054	864.566075742133	823.992515918917	175.393234314566	1080.512803212523	1127.457635522252	708.869436349078	1276.899147511297	1221.364106802199	590.831161475938	
90	41.666214285714	768.831766197835	1019.855271716169	441.567697227022	970.878917706553	1426.339980604641	243.308129512017	1071.276037433988	1358.615168737263	407.453675990237	993.926811426176	1451.158393932522	575.119375265848	975.236819742538	1495.428941409087	395.150810433057	984.957257763989	946.378881869283	570.007053500542	986.566898621096	955.240909392555	295.759124463621	1039.970065394015	753.855701480720	558.521283404098	966.809044785208	641.649797277918	625.927189366484	1057.111984549918	585.779639256058	559.111226666072	1052.200142276276	473.572921887447	582.773903557621	1037.741845803961	756.667494725630	324.997671148011	956.934889549533	638.157553875218	265.374397106073	1046.455352097124	565.841367518123	329.776648734402	1050.769150739444	496.531368279341	338.400108082389	1027.342186248319	423.692929117450	331.348953163280	943.565477665851	303.856907131457	280.694341822992	1001.793437969105	197.052645210652	355.189239923919	970.126290789786	408.691732199631	582.165414702008	841.960454285583	378.524204385699	632.753672163338	824.999858702731	270.314120368638	582.606107221376	620.619171367792	212.931680640697	538.449060388532	787.093583758181	159.389532651971	595.902815111387	675.031947916062	160.360525438152	620.493316801526	850.286607487506	51.801737021028	634.755852176591	880.534980158961	38.191083938857	396.933925276267	958.487617316113	35.386524080570	319.492387407724	1038.872779490758	97.209163010722	349.077217495397	1169.306328235070	47.665665462441	329.053010369891	875.197389479229	1082.894195231199	147.284427639676	882.120165179134	822.281933231722	169.589120157732	1067.511772528630	1125.828818124154	709.387496964743	1270.446479791137	1207.231625142573	592.723756519080	
91	41.677857142857	767.301276180154	1020.292416447439	439.324454466179	971.183791303165	1426.433540643293	241.181097318333	1070.159985644443	1359.009723729093	406.410605079535	991.412376384868	1451.908242093482	573.378958459848	974.135024370829	1496.015038486141	392.864486118928	983.312931221961	946.998412968582	568.545975196490	985.585218753625	956.198148456033	294.325552555593	1043.058549045006	758.007534000689	556.774167889228	973.906507313879	644.596971640052	625.745682926101	1065.658876697278	590.664073020875	558.977284442000	1063.232414466837	477.547691773934	583.388875088691	1034.398583251820	755.961932617959	323.080340659957	951.984383320432	638.436248246359	263.763759569804	1040.536711364184	565.098670792510	328.122146882311	1043.886733632102	495.985581885508	336.840203060737	1020.283093213335	423.450891737373	329.966098717510	935.881169064499	303.837336627414	279.852198617532	993.981805235361	197.008334018718	354.493960792646	980.000460496170	412.616581161751	582.566312353805	850.529854076559	385.266495575849	631.655076407217	831.802866108934	277.364177238287	581.934857780073	626.911800307871	224.541345249362	535.386450415481	791.329216932598	167.349295151267	595.305835551767	678.936015995255	171.038605251309	618.433164237802	851.513999053100	57.638337454278	635.671166810069	872.338989731949	38.264468149888	396.834894390415	950.299542344277	35.361950230127	319.425018867729	1030.786121145950	97.120150190854	348.875943941972	1161.151608330958	47.407527542669	328.978463858653	883.331826666709	1081.371356746787	142.320678206394	900.430798777812	820.999147582079	163.953031378016	1054.008260932705	1124.245535864399	709.816602404868	1263.499634576089	1191.645943951035	595.257564572686	
92	41.689500000000	765.822636012836	1020.672602587881	437.248002579774	971.255143972190	1426.499774311562	239.260466524267	1068.965580216621	1359.357083240105	405.459972888089	988.948757933430	1452.515635227123	571.829037051105	972.959669017228	1496.537551772031	390.814931393291	981.729856173703	947.576699113717	567.061621110449	984.522948079376	957.129188690199	292.857228699226	1045.802431883930	762.182119413565	554.892665932996	980.639075585874	647.789170422558	625.581343487851	1073.683282453607	595.816283561202	558.786055228214	1073.892158252057	481.929025100133	583.914456464948	1031.199824666816	755.351277555819	321.224277277712	947.070502775833	638.700756617268	262.290549822206	1034.698987269651	564.353411331138	326.497535169610	1037.116181555474	495.461669127621	335.406739529504	1013.338869233557	423.228383544456	328.705226368849	928.303105979998	303.872496688073	279.089910604578	986.223192323304	196.979912500344	353.857840522540	989.798274952073	416.749025537231	583.000714816932	859.327243633515	391.624966204270	630.859266670762	839.206893623501	284.005400833425	581.494143542417	634.026687126144	234.744258142800	533.054136850032	796.724173357703	174.770199957272	594.884730960278	684.149237779039	180.494814474657	616.815354377839	854.508899377884	63.516835923316	636.260508531602	864.138619986052	38.350300263920	396.732358391165	942.113638882839	35.354254822293	319.365267126674	1022.695986837707	97.047451177126	348.699661728336	1152.994551888234	47.172446802840	328.914696965133	891.906104810653	1079.970374265333	137.486944609109	919.434378918416	820.254307372114	158.548489716404	1040.103338978733	1122.762401975135	710.079467316007	1255.924085084301	1174.670285149910	598.465361160358	
